<svg width="24" height="24" viewBox="0 0 24 24" fill="none" xmlns="http://www.w3.org/2000/svg">
<g clip-path="url(#clip0_549_13716)">
<path d="M17.9957 19.3615L15.5931 11.9663L21.8824 7.39706H14.1082L11.7054 0.00213883L11.7047 0.000142588H19.4801L21.8834 7.39635L21.8835 7.3962L21.8855 7.39506C23.2812 11.6858 21.8437 16.5661 17.9957 19.3615ZM5.41456 19.3615L5.41257 19.3629L11.7034 23.9333L17.9957 19.3617L11.7054 14.7911L5.41456 19.3615ZM1.52632 7.39521C0.0570872 11.9183 1.76259 16.7109 5.41328 19.3624L5.41385 19.3601L7.81675 11.9653L1.52888 7.39692H9.30124L11.7041 0.00199624L11.7047 0H3.92893L1.52632 7.39521Z" fill="#EB5424"/>
</g>
<defs>
<clipPath id="clip0_549_13716">
<rect width="21.4077" height="24" fill="white" transform="translate(1)"/>
</clipPath>
</defs>
</svg>
