<svg width="24" height="24" viewBox="0 0 24 24" fill="none" xmlns="http://www.w3.org/2000/svg">
<path d="M23.52 12.2666C23.52 11.2799 23.4399 10.5599 23.2667 9.81329H12V14.2666H18.6133C18.48 15.3733 17.76 17.0399 16.16 18.1599L16.1375 18.309L19.6998 21.0687L19.9466 21.0933C22.2133 18.9999 23.52 15.9199 23.52 12.2666Z" fill="#4285F4"/>
<path d="M12 24.0001C15.24 24.0001 17.9599 22.9334 19.9467 21.0935L16.16 18.1601C15.1467 18.8668 13.7866 19.3601 12 19.3601C8.8267 19.3601 6.13339 17.2668 5.1733 14.3735L5.03257 14.3854L1.32842 17.2521L1.27998 17.3868C3.2533 21.3067 7.30664 24.0001 12 24.0001Z" fill="#34A853"/>
<path d="M5.17328 14.3733C4.91995 13.6266 4.77334 12.8266 4.77334 11.9999C4.77334 11.1732 4.91995 10.3732 5.15995 9.62658L5.15324 9.46756L1.40268 6.55484L1.27997 6.61321C0.466672 8.2399 0 10.0666 0 11.9999C0 13.9333 0.466672 15.7599 1.27997 17.3865L5.17328 14.3733Z" fill="#FBBC05"/>
<path d="M12 4.63997C14.2533 4.63997 15.7733 5.6133 16.64 6.42668L20.0266 3.12C17.9467 1.18667 15.24 0 12 0C7.30664 0 3.2533 2.69331 1.27998 6.61328L5.15997 9.62665C6.13339 6.73333 8.8267 4.63997 12 4.63997Z" fill="#EB4335"/>
</svg>
