<svg width="24" height="24" viewBox="0 0 24 24" fill="none" xmlns="http://www.w3.org/2000/svg">
<g clip-path="url(#clip0_549_14805)">
<path d="M23.9554 0.0439911H0.0653229V23.9341H23.9554V0.0439911Z" fill="#BC1F27"/>
<path d="M6.74167 9.80177C6.31985 9.5495 5.93013 9.41196 4.65079 9.41196H2.66987V17.3815H4.18765V14.4467H5.0176C5.85218 14.4467 6.17769 14.355 6.52166 14.1808C7.34244 13.768 7.81931 12.9198 7.81931 11.8652C7.82389 10.9481 7.44329 10.2144 6.74167 9.80177ZM5.98513 12.7272C5.77875 13.062 5.59531 13.1399 4.97632 13.1399H4.18763V10.7097H5.15055C5.78797 10.7097 6.16853 11.1591 6.16853 11.9019C6.16851 12.2778 6.11352 12.5117 5.98513 12.7272ZM2.66985 18.1335H3.01837V21.3661H2.66985V18.1335ZM6.63157 18.9588C6.37026 18.9588 6.15473 19.0643 5.9805 19.2844C5.7971 19.5182 5.71919 19.7751 5.71919 20.1694C5.71919 20.9489 6.08139 21.4166 6.68211 21.4166C6.96177 21.4166 7.22308 21.3111 7.41577 21.1231L7.28282 20.8893C7.13148 21.0406 6.96179 21.1094 6.75087 21.1094C6.53075 21.1094 6.33353 21.0268 6.20975 20.8204C6.13643 20.6967 6.10891 20.5271 6.10891 20.3069V20.2519H7.46159V20.2014C7.45248 19.6421 7.40205 19.4174 7.21404 19.211C7.07183 19.0505 6.87012 18.9588 6.63157 18.9588ZM6.11352 19.9768C6.13182 19.4907 6.30611 19.2476 6.61327 19.2476C6.77839 19.2476 6.92966 19.3256 7.00314 19.4542C7.06722 19.5686 7.09935 19.7246 7.10396 19.9768H6.11352ZM9.47923 19.312C9.51597 19.3944 9.5296 19.4907 9.5296 19.5871V21.3662H9.18573V19.7796C9.18573 19.532 9.16732 19.4678 9.10778 19.3898C9.06185 19.3303 8.97022 19.289 8.86938 19.289C8.69504 19.289 8.42451 19.4403 8.26865 19.6191V21.3661H7.93843V19.5549C7.93843 19.2202 7.85602 19.0597 7.85602 19.0597L8.18609 18.9588C8.18609 18.9588 8.264 19.1332 8.264 19.3256C8.48873 19.0826 8.71795 18.9634 8.94729 18.9634C9.18118 18.9681 9.39204 19.1056 9.47923 19.312ZM8.26865 9.89343C8.26865 9.36616 8.68139 8.94434 9.17653 8.94434C9.66263 8.94434 10.0524 9.3707 10.0524 9.89343C10.0524 10.4208 9.64883 10.8472 9.15369 10.8472C8.67217 10.8472 8.26865 10.4208 8.26865 9.89343ZM8.43373 11.613L9.88275 11.3699V17.3768H8.43373V11.613ZM10.4697 19.0231H11.0291L10.9236 19.3027H10.4559V20.816C10.4559 21.0773 10.5201 21.1643 10.7356 21.1643C10.8319 21.1643 10.8044 21.1643 10.8686 21.1323L10.9144 21.3661C10.8044 21.4259 10.7631 21.4442 10.6117 21.4442C10.4972 21.4442 10.4101 21.4211 10.3275 21.3799C10.1762 21.3019 10.1166 21.1506 10.1166 20.9122V19.3027H9.83232V19.0231H10.1166V18.1335H10.4651V19.0231H10.4697ZM5.28356 18.1335H4.94423V18.9129C4.94423 19.0826 4.94874 19.2752 4.94874 19.2752C4.82037 19.0872 4.60486 18.9772 4.36181 18.9772C4.20593 18.9772 4.0822 19.0184 3.94458 19.1239C3.64655 19.344 3.49527 19.7109 3.49527 20.2106C3.49527 20.958 3.81623 21.3982 4.38022 21.3982C4.63236 21.3982 4.79746 21.3204 4.95332 21.1231C4.95793 21.2471 4.99925 21.3615 4.99925 21.3615H5.34769C5.29726 21.224 5.28354 21.0085 5.28354 20.6051V18.1335H5.28356ZM4.93963 20.77C4.93963 20.77 4.89833 20.8711 4.80668 20.9398C4.66912 21.0499 4.56823 21.091 4.38933 21.091C4.18763 21.091 4.05466 21.0131 3.95377 20.816C3.88497 20.6784 3.86667 20.4766 3.86667 20.2014C3.86667 19.8713 3.9034 19.7017 4.00422 19.5229C4.09589 19.3624 4.23806 19.2798 4.40774 19.2798C4.66451 19.2798 4.82498 19.3577 4.93502 19.5229V20.77L4.93963 20.77ZM15.4265 19.0184L14.6836 21.4487C14.5368 21.9209 14.3626 22.2329 13.982 22.3291L13.8812 22.0815C14.0921 22.0081 14.2021 21.9073 14.2985 21.6504C14.2618 21.467 14.2435 21.3845 14.2435 21.3845C14.2159 21.2332 14.1013 20.7746 14.028 20.5408L13.5556 19.0735L13.8904 18.9497L14.3351 20.472C14.3993 20.6921 14.4635 21.0544 14.4635 21.0544H14.4727C14.4727 21.0544 14.5552 20.7517 14.6057 20.5591L15.0322 19.0184H15.4265ZM15.7199 20.9398C15.7199 20.8572 15.674 20.8251 15.5823 20.8251H15.4448V21.2149H15.5137V21.0452H15.5549L15.6512 21.2103H15.72L15.6237 21.0406C15.6833 21.036 15.7199 21.004 15.7199 20.9398ZM15.5182 20.9901V20.8801H15.5778C15.6144 20.8801 15.6512 20.8893 15.6512 20.9351C15.6512 20.9855 15.6144 20.9948 15.5778 20.9948H15.5182V20.9901ZM15.5733 20.6784C15.3945 20.6784 15.2477 20.8343 15.2477 21.0223C15.2477 21.2103 15.3945 21.3661 15.5733 21.3661C15.7521 21.3661 15.8988 21.2103 15.8988 21.0223C15.8942 20.8296 15.7521 20.6784 15.5733 20.6784ZM15.5733 21.2975C15.4356 21.2975 15.3302 21.1827 15.3302 21.0223C15.3302 20.8618 15.4402 20.7472 15.5733 20.7472C15.7108 20.7472 15.8162 20.8618 15.8162 21.0223C15.8162 21.1827 15.7062 21.2975 15.5733 21.2975ZM19.0811 15.8819L18.3016 15.8728C18.1502 15.8728 18.0632 15.8132 18.0632 15.7353C18.0632 15.5748 18.2694 15.4372 18.6363 15.2538C18.7463 15.2676 18.7875 15.2676 18.8518 15.2676C20.0303 15.2676 20.9014 14.5339 20.9014 13.5251C20.9014 13.1353 20.7914 12.8373 20.5759 12.5621C20.663 12.5714 20.8144 12.5943 20.9564 12.5943C21.3555 12.5943 21.6581 12.4659 21.9745 12.1587L21.3692 11.1819C21.0345 11.5029 20.6218 11.6864 20.2228 11.6864C20.0395 11.6864 19.8423 11.6406 19.5396 11.5579C19.1407 11.4571 18.8564 11.4112 18.5446 11.4112C17.1278 11.4112 16.206 12.1907 16.206 13.3968C16.206 14.268 16.5958 14.8045 17.3983 15.0245C16.4858 15.2768 16.3803 15.6344 16.3803 16.0104C16.3803 16.4139 16.5408 16.6754 16.8021 16.7762C17.0635 16.8908 17.4854 16.9458 18.1365 16.9596L18.7555 16.9733C19.3287 16.9826 19.7735 17.1476 19.7735 17.6749C19.7735 17.918 19.6313 18.1335 19.4158 18.2711C19.1865 18.4224 18.8747 18.4637 18.5079 18.4637C17.8384 18.4637 17.4671 18.2114 17.4671 17.7392C17.4671 17.5787 17.4762 17.5008 17.5312 17.3632H16.1877C16.1327 17.4776 16.0593 17.6383 16.0593 17.9593C16.0593 18.3581 16.2105 18.7021 16.5132 19.0001C17.013 19.4954 17.8247 19.633 18.6134 19.633C19.4801 19.633 20.3146 19.4266 20.8006 18.8763C21.1032 18.5324 21.2454 18.1563 21.2454 17.6612C21.2454 17.1338 21.094 16.7304 20.7685 16.4094C20.3696 16.0287 19.9248 15.8912 19.0811 15.8819ZM17.6642 13.4013C17.6642 12.8511 17.9806 12.5301 18.5308 12.5301C19.0856 12.5301 19.4066 12.8511 19.4066 13.4013C19.4066 13.9424 19.0948 14.2358 18.5171 14.2358C18.0081 14.2405 17.6642 14.002 17.6642 13.4013ZM13.5235 12.7043C13.23 12.7043 12.854 12.9107 12.5147 13.2317V17.3815H11.0612V13.1262C11.0612 12.6217 10.9969 12.1402 10.8686 11.7506L12.1571 11.3608C12.2854 11.6038 12.3634 11.8514 12.3634 12.0945C12.579 11.9339 12.7623 11.7963 13.0007 11.6588C13.2943 11.4983 13.6703 11.4067 13.9959 11.4067C14.6148 11.4067 15.1559 11.7506 15.3302 12.255C15.4082 12.4705 15.4402 12.7227 15.4402 13.0895V17.3768H14.0096V13.5572C14.0096 12.9015 13.9041 12.7043 13.5235 12.7043ZM12.7807 19.2982V20.8113C12.7807 21.0727 12.8449 21.1599 13.0605 21.1599C13.1567 21.1599 13.1291 21.1599 13.1934 21.1277L13.2392 21.3615C13.1291 21.4211 13.0879 21.4395 12.9367 21.4395C12.8219 21.4395 12.7348 21.4166 12.6523 21.3754C12.5009 21.2975 12.4413 21.146 12.4413 20.9076V19.2982H12.157V19.0184H12.4413V18.1289H12.7898V19.0184H13.3355L13.23 19.2982H12.7807ZM11.3959 19.0276L11.749 18.9681V21.3661H11.3959V19.0276Z" fill="white"/>
</g>
<defs>
<clipPath id="clip0_549_14805">
<rect width="24" height="24" fill="white"/>
</clipPath>
</defs>
</svg>
