<svg width="24" height="24" viewBox="0 0 24 24" fill="none" xmlns="http://www.w3.org/2000/svg">
<path d="M1.5 1.5V9H9V1.5H1.5ZM12 1.5V3H13.5V1.5H12ZM12 3H10.5V4.5H12V3ZM12 4.5V6H10.5V9H13.5V4.5H12ZM15 1.5V9H22.5V1.5H15ZM3 3H7.5V7.5H3V3ZM16.5 3H21V7.5H16.5V3ZM4.5 4.5V6H6V4.5H4.5ZM18 4.5V6H19.5V4.5H18ZM1.5 10.5V12H3V10.5H1.5ZM3 12V13.5H4.5V12H3ZM4.5 12H6V13.5H9V10.5H4.5V12ZM10.5 10.5V16.5H12V15H15V10.5H10.5ZM15 15V16.5H16.5V15H15ZM16.5 15H18V13.5H16.5V15ZM18 13.5H19.5V15H21V12H22.5V10.5H18V13.5ZM19.5 15H18V16.5H19.5V15ZM15 16.5H13.5V18H15V16.5ZM15 18V19.5H16.5V18H15ZM13.5 18H10.5V22.5H12V21H13.5V18ZM13.5 21V22.5H15V21H13.5ZM12 12H13.5V13.5H12V12ZM1.5 15V22.5H9V15H1.5ZM3 16.5H7.5V21H3V16.5ZM21 16.5V18H18V22.5H19.5V21H21V19.5H22.5V16.5H21ZM21 21V22.5H22.5V21H21ZM4.5 18V19.5H6V18H4.5Z" fill="black"/>
</svg>
